<svg width="132" height="35" viewBox="0 0 132 35" fill="none" xmlns="http://www.w3.org/2000/svg">
<g clip-path="url(#clip0_27_4812)">
<path d="M30.8727 34.997C29.7627 34.9971 28.6869 34.6167 27.8289 33.9207C26.9708 33.2246 26.3834 32.256 26.1669 31.1798C25.9503 30.1036 26.1181 28.9865 26.6414 28.0189C27.1648 27.0512 28.0114 26.2929 29.037 25.8732C30.0626 25.4534 31.2037 25.3982 32.2659 25.7169C33.3281 26.0357 34.2455 26.7086 34.862 27.6211C35.4785 28.5336 35.7557 29.6292 35.6466 30.7211C35.5374 31.813 35.0486 32.8338 34.2634 33.6093C33.8185 34.0499 33.2899 34.3993 32.708 34.6375C32.1262 34.8756 31.5025 34.9978 30.8727 34.997Z" fill="white"/>
<path d="M4.80069 9.70479C3.69065 9.70489 2.61492 9.3245 1.75683 8.62844C0.898737 7.93237 0.311378 6.96372 0.0948502 5.88754C-0.121677 4.81137 0.0460289 3.69429 0.569383 2.72664C1.09274 1.759 1.93935 1.00069 2.96496 0.580939C3.99056 0.161189 5.13169 0.105967 6.19386 0.424699C7.25603 0.74343 8.17353 1.41638 8.78998 2.32888C9.40644 3.24137 9.68372 4.33694 9.57456 5.42887C9.4654 6.5208 8.97655 7.54152 8.19133 8.3171C7.74725 8.75877 7.21886 9.10886 6.63681 9.34708C6.05476 9.58529 5.43065 9.70688 4.80069 9.70479Z" fill="white"/>
<path d="M30.6562 9.56612C29.5462 9.56482 28.471 9.18312 27.6139 8.48607C26.7567 7.78902 26.1706 6.81974 25.9553 5.74339C25.7401 4.66704 25.9091 3.55022 26.4335 2.58323C26.9579 1.61624 27.8053 0.858917 28.8313 0.440297C29.8573 0.0216765 30.9984 -0.0323378 32.0602 0.287463C33.122 0.607264 34.0387 1.28109 34.6542 2.19413C35.2697 3.10716 35.5459 4.20291 35.4357 5.29466C35.3255 6.38641 34.8357 7.40661 34.0498 8.18144C33.6048 8.62252 33.0758 8.972 32.4933 9.20968C31.9108 9.44735 31.2863 9.56851 30.6562 9.56612Z" fill="white"/>
<path d="M4.92566 34.9969C3.97641 34.9974 3.04835 34.7195 2.25892 34.1985C1.46948 33.6774 0.854162 32.9366 0.490831 32.0697C0.1275 31.2029 0.0324854 30.249 0.217817 29.3287C0.403148 28.4085 0.860493 27.5632 1.53197 26.9C1.73859 26.6967 1.9656 26.5148 2.20949 26.357C2.28499 26.3035 2.36345 26.2541 2.44449 26.2092C2.62149 26.1066 2.7985 26.0161 2.9633 25.9407C3.05486 25.9015 3.14642 25.8592 3.24408 25.823C3.43237 25.7518 3.62502 25.6923 3.82088 25.645L3.94296 25.6119L4.01925 25.5907L5.08741 25.5214C5.22169 25.5214 5.36514 25.5425 5.52078 25.5636H5.58182H5.7161H5.75883H5.80766H5.85038H6.08538C7.96274 25.5374 9.75285 24.7758 11.0626 23.446C12.3724 22.1163 13.0948 20.3271 13.0711 18.4713V18.417V18.3627C13.0681 18.3114 13.0681 18.2601 13.0711 18.2088C13.0711 18.1485 13.0711 18.0882 13.0528 18.0278V17.9192C13.0528 17.8287 13.0345 17.7412 13.0284 17.6507L13.1078 16.5888C13.1145 16.5633 13.1227 16.5381 13.1322 16.5134L13.1505 16.4471C13.1957 16.2419 13.2559 16.0403 13.3305 15.8437C13.3635 15.75 13.4022 15.6583 13.4465 15.5692C13.5293 15.3884 13.622 15.2121 13.7242 15.0413C13.77 14.9689 13.8158 14.8934 13.8677 14.818C14.0302 14.5772 14.2151 14.352 14.4201 14.1453C14.862 13.6884 15.3918 13.3235 15.9784 13.0718C16.565 12.8201 17.1966 12.6868 17.836 12.6797C18.4755 12.6727 19.1099 12.7919 19.702 13.0306C20.2942 13.2692 20.8322 13.6223 21.2843 14.0693C21.7365 14.5163 22.0938 15.048 22.3352 15.6334C22.5766 16.2187 22.6973 16.8458 22.6901 17.4779C22.6829 18.11 22.5481 18.7342 22.2935 19.3141C22.0389 19.8939 21.6696 20.4176 21.2075 20.8545C20.9993 21.056 20.7724 21.2378 20.5299 21.3975C20.4506 21.4518 20.3743 21.4971 20.298 21.5393C20.1306 21.6398 19.9573 21.7304 19.7792 21.8108C19.6846 21.853 19.59 21.8953 19.5015 21.9284C19.3107 21.9969 19.1161 22.0543 18.9185 22.1004L18.8026 22.1306L18.7263 22.1517L17.6459 22.2271C17.5121 22.2208 17.3786 22.2077 17.2461 22.1879H17.1515H17.0172H16.944H16.889H16.6113C15.6799 22.1993 14.76 22.3922 13.9041 22.7557C13.0483 23.1191 12.2735 23.6459 11.624 24.3059C10.9744 24.9658 10.4631 25.746 10.1191 26.6017C9.77512 27.4573 9.60534 28.3716 9.61946 29.2923V29.3435V29.3978C9.62756 29.4488 9.63266 29.5002 9.63472 29.5517C9.63472 29.612 9.63472 29.6724 9.65303 29.7327C9.65603 29.7883 9.66214 29.8437 9.67134 29.8986C9.67134 29.971 9.67134 30.0434 9.67134 30.1158V30.14L9.59504 31.1566C9.59504 31.1777 9.55537 31.2954 9.54621 31.3316C9.50015 31.5312 9.44102 31.7277 9.3692 31.9198C9.33712 32.0105 9.29941 32.0992 9.25628 32.1853C9.17083 32.3663 9.08233 32.5382 8.97856 32.7162C8.93278 32.7856 8.8809 32.8701 8.82597 32.9515C8.66343 33.1869 8.48066 33.4079 8.27968 33.6122C7.83529 34.0535 7.30684 34.4033 6.72486 34.6415C6.14289 34.8797 5.51893 35.0015 4.88904 34.9999L4.92566 34.9969Z" fill="#FF7000"/>
<path d="M17.887 34.997C16.8588 35.0077 15.8546 34.6904 15.0234 34.0921C14.1922 33.4938 13.5783 32.6465 13.273 31.676C12.9676 30.7055 12.9871 29.6635 13.3284 28.7048C13.6698 27.746 14.3148 26.9217 15.1678 26.3541C15.241 26.3058 15.3173 26.2606 15.3967 26.2154C15.5654 26.1145 15.7397 26.0229 15.9186 25.9408L16.1963 25.8232C16.3859 25.7559 16.5795 25.7005 16.7761 25.6573L16.9653 25.6029L18.0518 25.5245C18.18 25.5245 18.3173 25.5486 18.4608 25.5667H18.5432H18.6836H18.7385H18.7721H19.0559C20.9316 25.5397 22.7199 24.778 24.0279 23.4488C25.336 22.1196 26.0569 20.3316 26.0325 18.4775V18.2572L26.0142 18.2331C26.0129 18.2251 26.0129 18.217 26.0142 18.209V18.0521L25.9959 17.9013C25.9959 17.8168 25.9745 17.7353 25.9714 17.6509L26.0447 16.6252C26.0447 16.598 26.0874 16.4713 26.0966 16.4321C26.1436 16.2347 26.2027 16.0403 26.2736 15.8499C26.3083 15.7563 26.348 15.6647 26.3926 15.5754C26.4747 15.3977 26.5663 15.2244 26.6673 15.0565L26.6886 15.0203C26.7253 14.96 26.7619 14.8966 26.8046 14.8363C26.9692 14.5953 27.1551 14.3691 27.3601 14.1605C28.2608 13.2709 29.482 12.7712 30.7553 12.7712C32.0286 12.7712 33.2498 13.2709 34.1505 14.1605C35.0475 15.0524 35.5509 16.259 35.5509 17.5166C35.5509 18.7743 35.0475 19.9808 34.1505 20.8727C33.9397 21.0725 33.712 21.2542 33.4699 21.4157L33.3112 21.5123L33.2258 21.5666C33.0631 21.6626 32.895 21.7492 32.7222 21.826C32.6246 21.8682 32.536 21.9105 32.4384 21.9467C32.2467 22.0147 32.051 22.0711 31.8524 22.1156L31.7304 22.1488L31.6541 22.1699L30.5889 22.2423C30.4333 22.2423 30.2624 22.2152 30.1006 22.1941C30.0539 22.1917 30.007 22.1917 29.9603 22.1941H29.9114H29.8199H29.5818C28.6525 22.2066 27.7349 22.4001 26.8812 22.7634C26.0276 23.1267 25.2548 23.6527 24.6069 24.3113C23.959 24.97 23.4487 25.7483 23.1053 26.602C22.7618 27.4556 22.5919 28.3678 22.6052 29.2864V29.3407V29.392C22.6133 29.4459 22.6184 29.5003 22.6205 29.5549C22.6205 29.6092 22.6205 29.6635 22.6357 29.7178C22.651 29.7721 22.6357 29.8203 22.651 29.8746C22.6663 29.9289 22.6693 30.0375 22.6724 30.116L22.593 31.1598L22.5472 31.3227C22.5011 31.5272 22.442 31.7287 22.3702 31.926C22.3397 32.0105 22.3 32.0949 22.2634 32.1794L22.2482 32.2096C22.1683 32.3814 22.0786 32.5486 21.9796 32.7104C21.9308 32.7908 21.8819 32.8692 21.8331 32.9457C21.6686 33.1858 21.4827 33.4109 21.2777 33.6184C20.8329 34.0585 20.3042 34.4071 19.7222 34.6437C19.1401 34.8804 18.5164 35.0005 17.887 34.997Z" fill="#FF7000"/>
<path d="M4.92872 22.1911C3.97958 22.1922 3.05144 21.915 2.26172 21.3945C1.472 20.8741 0.856205 20.1338 0.492241 19.2673C0.128278 18.4008 0.0325035 17.4471 0.217038 16.5268C0.401573 15.6065 0.858126 14.761 1.52892 14.0972C1.73776 13.8943 1.96564 13.7115 2.20949 13.5512L2.44754 13.4034C2.61234 13.3068 2.78325 13.2194 2.96331 13.1349C3.05486 13.0926 3.14642 13.0534 3.24408 13.0172C3.43263 12.95 3.62528 12.8946 3.82089 12.8513L3.93991 12.8181L4.00705 12.797L5.09352 12.7216C5.23391 12.7216 5.39871 12.7457 5.54825 12.7668H5.58182H5.72221H5.77104H5.81682H5.85954H6.10064C7.02968 12.7539 7.94702 12.5601 8.80029 12.1966C9.65356 11.8332 10.426 11.3071 11.0736 10.6485C11.7212 9.98992 12.2312 9.21167 12.5744 8.35823C12.9177 7.50478 13.0875 6.59285 13.0742 5.67453V5.62325V5.57196C13.0636 5.51419 13.0574 5.4557 13.0559 5.39699V5.25219L13.0376 5.10437C13.0249 5.01736 13.0167 4.92976 13.0132 4.84192L13.0864 3.8464V3.82227V3.80115L13.1322 3.64729C13.1781 3.44266 13.2373 3.24114 13.3092 3.04395C13.3428 2.95344 13.3855 2.86295 13.4282 2.76943C13.5096 2.59139 13.6013 2.41814 13.7029 2.25056V2.2234C13.7456 2.15703 13.7853 2.08765 13.8341 2.01826C13.9944 1.78032 14.1773 1.55808 14.3804 1.35459C14.8221 0.897533 15.3518 0.53231 15.9383 0.28038C16.5248 0.0284505 17.1563 -0.10511 17.7957 -0.112471C18.4351 -0.119832 19.0696 -0.000843875 19.6618 0.237516C20.2541 0.475875 20.7922 0.828799 21.2446 1.27556C21.697 1.72233 22.0545 2.25393 22.2962 2.83915C22.5378 3.42438 22.6588 4.05144 22.6519 4.68351C22.6451 5.31557 22.5105 5.93991 22.2562 6.51987C22.0018 7.09983 21.6328 7.6237 21.1708 8.06076C20.9633 8.26297 20.7364 8.44483 20.4933 8.60377C20.4201 8.65506 20.356 8.69125 20.2919 8.73047L20.2553 8.75159C20.0783 8.85416 19.9074 8.94466 19.7426 9.02008C19.6449 9.06231 19.5564 9.10454 19.4618 9.13773C19.2702 9.20688 19.0745 9.26431 18.8758 9.30968C18.8335 9.31855 18.7918 9.32962 18.7507 9.34286L18.6744 9.36398L17.6093 9.43638C17.475 9.43638 17.3316 9.41225 17.182 9.39415H17.1149H16.9776H16.9226H16.889H16.6022C15.6724 9.40595 14.754 9.59884 13.8997 9.96177C13.0454 10.3247 12.2718 10.8506 11.6233 11.5093C10.9747 12.168 10.4639 12.9467 10.1201 13.8007C9.77627 14.6547 9.60615 15.5674 9.61946 16.4865V16.5377V16.589C9.63007 16.6427 9.6362 16.6972 9.63777 16.7519C9.63777 16.8062 9.63777 16.8636 9.63777 16.9179C9.63777 16.9722 9.63777 17.0174 9.65608 17.0747C9.66673 17.1527 9.67284 17.2313 9.67439 17.31L9.61946 18.3448C9.61946 18.3719 9.61946 18.3991 9.5981 18.4262L9.57063 18.5197C9.52507 18.7241 9.46698 18.9256 9.39668 19.1231C9.36311 19.2136 9.31732 19.3041 9.2746 19.4006C9.19513 19.576 9.10651 19.7472 9.00909 19.9135C8.96026 19.9949 8.91143 20.0733 8.8626 20.1457C8.70172 20.3868 8.51666 20.6111 8.31021 20.8155C7.86649 21.2568 7.33858 21.6067 6.75709 21.8449C6.17559 22.0831 5.55206 22.2048 4.92262 22.2031L4.92872 22.1911Z" fill="#FF7000"/>
<path d="M44.2706 13.5601H40.7915V11.1467H50.6949V13.5601H47.1791V23.8773H44.2706V13.5601Z" fill="white"/>
<path d="M59.9084 18.4926H55.1688V21.5093H60.4638V23.8714H52.2634V11.1409H60.1983V13.503H55.1688V16.1486H59.9084V18.4926Z" fill="white"/>
<path d="M71.8963 23.5334C70.8473 23.9259 69.7306 24.1115 68.6094 24.0794C64.1537 24.0794 61.8586 21.3221 61.8586 17.693C61.8586 13.3459 64.9929 10.9446 68.8932 10.9446C70.4039 10.9446 71.5514 11.2282 72.0672 11.5117L71.4568 13.7803C70.684 13.46 69.8533 13.2988 69.0153 13.3067C66.7203 13.3067 64.9227 14.6883 64.9227 17.5301C64.9227 20.0822 66.4487 21.6901 69.0336 21.6901C69.8661 21.6968 70.693 21.5558 71.4751 21.2738L71.8963 23.5334Z" fill="white"/>
<path d="M76.7609 11.1409V16.034H81.5584V11.1409H84.4638V23.8775H81.5584V18.5499H76.7609V23.8775H73.8555V11.1409H76.7609Z" fill="white"/>
<path d="M87.1709 11.1409H88.8525V22.4988H94.3459V23.8775H87.1709V11.1409Z" fill="white"/>
<path d="M106.48 17.3764C106.48 21.7446 103.782 24.0855 100.495 24.0855C97.0712 24.0855 94.6968 21.458 94.6968 17.6026C94.6968 13.5602 97.2207 10.9146 100.66 10.9146C104.203 10.9146 106.48 13.5783 106.48 17.3764ZM96.4608 17.5664C96.4608 20.3056 97.9531 22.7461 100.59 22.7461C103.227 22.7461 104.719 20.3327 104.719 17.4518C104.719 14.9027 103.382 12.257 100.608 12.257C97.8341 12.257 96.4608 14.785 96.4608 17.5664Z" fill="white"/>
<path d="M118.465 23.3103C117.194 23.7699 115.851 24.0067 114.497 24.0102C112.547 24.0102 110.942 23.5185 109.678 22.3299C108.571 21.271 107.881 19.5696 107.881 17.5846C107.881 13.7865 110.539 11.0081 114.861 11.0081C115.967 10.9836 117.067 11.1827 118.092 11.5934L117.656 12.9358C116.762 12.5407 115.788 12.3529 114.809 12.3868C111.671 12.3868 109.62 14.3144 109.62 17.5152C109.62 20.7159 111.571 22.6436 114.592 22.6436C115.681 22.6436 116.423 22.4928 116.808 22.3027V18.5107H114.207V17.1984H118.453L118.465 23.3103Z" fill="white"/>
<path d="M132 17.3764C132 21.7446 129.305 24.0855 126.015 24.0855C122.594 24.0855 120.217 21.458 120.217 17.6026C120.217 13.5602 122.741 10.9146 126.183 10.9146C129.723 10.9146 132 13.5783 132 17.3764ZM121.981 17.5664C121.981 20.3056 123.473 22.7461 126.11 22.7461C128.747 22.7461 130.242 20.3327 130.242 17.4518C130.242 14.9027 128.902 12.257 126.131 12.257C123.36 12.257 121.981 14.785 121.981 17.5664Z" fill="white"/>
</g>
<defs>
<clipPath id="clip0_27_4812">
<rect width="132" height="35" fill="white"/>
</clipPath>
</defs>
</svg>
