<svg width="58" height="58" viewBox="0 0 58 58" fill="none" xmlns="http://www.w3.org/2000/svg">
<path d="M56.0295 2.45895C55.1733 2.45895 54.1744 2.45895 53.3181 2.45895C47.4674 2.74435 41.902 4.02866 36.6221 6.59729C30.2005 9.59402 24.7779 13.8751 20.4968 19.5831C17.5001 23.436 15.3596 27.7171 13.7899 32.2835C13.6472 32.5689 13.7899 32.7116 13.9326 32.8543C15.2169 34.1386 16.5012 35.423 17.7855 36.7073C17.9282 36.85 18.0709 37.1354 18.0709 37.4208C18.0709 37.7062 17.9282 37.9916 17.6428 38.1343C17.3574 38.277 16.9293 38.277 16.7866 37.9916C16.0731 37.2781 15.5023 36.7073 14.7888 35.9938C13.9326 35.1376 13.2191 34.2813 12.3629 33.5678C12.0775 33.2824 11.9348 32.8543 12.0775 32.4262C13.9326 26.8609 16.6439 21.7236 20.4968 17.1572C24.3498 12.448 29.0589 8.73781 34.3389 6.02648C39.1907 3.45786 44.4707 1.88814 49.8933 1.17464C52.1765 0.889234 54.4598 0.746533 56.743 0.889234C57.4565 0.889234 57.5992 1.17464 57.7419 1.88814C58.0273 11.1637 55.7441 19.7258 50.7495 27.7171C45.755 35.5657 38.9053 41.4164 30.3432 45.1266C29.0589 45.6974 27.6319 46.1256 26.2049 46.6964C25.7768 46.8391 25.4914 46.8391 25.206 46.411C23.779 44.9839 22.2093 43.4142 20.7822 41.9872C20.4968 41.7018 20.3541 41.2737 20.6395 40.8456C20.9249 40.4175 21.4958 40.4175 21.9239 40.8456C23.2082 42.1299 24.4925 43.4142 25.7768 44.6985C26.0622 44.9839 26.2049 44.9839 26.4903 44.8412C32.7692 42.7007 38.3345 39.2759 43.0437 34.7094C48.609 29.2868 52.3192 22.8652 54.4598 15.5875C55.6014 11.5918 56.1722 7.4535 56.1722 3.17246C56.1722 2.88705 56.0295 2.74435 56.0295 2.45895Z" fill="#FF7000"/>
<path d="M48.181 19.1552C48.181 24.0071 44.3281 27.86 39.4763 27.86C34.6244 27.86 30.7715 24.0071 30.7715 19.1552C30.7715 14.4461 34.6244 10.4504 39.3336 10.4504C44.3281 10.4504 48.181 14.3034 48.181 19.1552ZM46.4686 19.2979C46.4686 15.3023 43.3292 12.1629 39.3336 12.1629C35.3379 12.1629 32.1985 15.3023 32.1985 19.2979C32.1985 23.2936 35.3379 26.433 39.3336 26.433C43.3292 26.2903 46.4686 23.1509 46.4686 19.2979Z" fill="#FF7000"/>
<path d="M26.3478 55.6864C27.3467 55.1156 28.3456 54.4021 29.2018 53.6886C32.0559 51.1199 33.6256 47.9805 34.3391 44.2703C34.4818 43.6995 34.7672 43.4141 35.1953 43.4141C35.7661 43.4141 36.0515 43.8422 36.0515 44.413C35.9088 45.1265 35.7661 45.9827 35.4807 46.6962C33.911 51.548 31.0569 55.1156 26.6332 57.5415C25.6343 58.1123 25.2062 57.8269 25.0635 56.828C24.4927 53.8313 23.9219 50.6918 23.3511 47.6951C23.3511 47.4097 23.3511 47.1243 23.3511 46.9816C23.4938 46.6962 23.7792 46.5535 24.2073 46.5535C24.4927 46.5535 24.7781 46.8389 24.9208 47.1243C25.0635 47.9805 25.2062 48.8367 25.4916 49.8356C25.6343 51.8334 26.0624 53.6886 26.3478 55.6864Z" fill="#FF7000"/>
<path d="M2.80214 32.1408C3.65834 32.2835 4.51455 32.4262 5.22806 32.5689C7.22588 32.997 9.22369 33.2824 11.0788 33.7105C11.2215 33.7105 11.2215 33.7105 11.3642 33.7105C11.7923 33.8533 12.0777 34.2814 11.935 34.7095C11.7923 35.1376 11.5069 35.423 10.9361 35.2803C9.7945 34.9949 8.51019 34.8522 7.36858 34.5668C5.51346 34.1387 3.65834 33.8533 1.66052 33.4251C1.51782 33.4251 1.51782 33.4251 1.37512 33.4251C0.661616 33.2824 0.518914 32.8543 0.804317 32.1408C1.66052 30.5711 2.65943 29.0014 3.94375 27.7171C6.65507 24.8631 9.9372 23.2934 13.6474 22.4371C13.7901 22.4371 13.9328 22.4371 13.9328 22.2944C14.3609 22.1517 14.789 22.4371 14.9317 22.8652C15.0744 23.2934 14.789 23.7215 14.2182 23.8642C13.362 24.1496 12.3631 24.2923 11.5069 24.5777C7.79668 25.862 4.94266 28.1452 2.80214 31.4273C2.94484 31.8554 2.94484 31.9981 2.80214 32.1408Z" fill="#FF7000"/>
<path d="M12.9336 44.8415C13.0763 44.6988 13.219 44.4134 13.3617 44.2706C16.073 41.5593 18.6416 38.9907 21.353 36.2794C22.3519 35.2805 23.2081 34.4243 24.207 33.4253C24.6351 32.9972 25.0632 32.9972 25.4913 33.2826C25.7767 33.5681 25.7767 34.1389 25.3486 34.567C22.2092 37.7064 19.0697 40.9885 15.7876 44.1279C15.3595 44.5561 14.9314 45.1269 14.3606 45.555C14.0752 45.8404 13.7898 45.8404 13.5044 45.6977C13.0763 45.555 12.9336 45.2696 12.9336 44.8415Z" fill="#FF7000"/>
<path d="M9.22379 48.5518C9.50919 48.6945 9.7946 48.8372 9.9373 49.1226C10.08 49.408 9.9373 49.6934 9.7946 49.9788C9.65189 50.1215 9.36649 50.4069 9.22379 50.6923C7.51137 52.4047 5.79896 54.2598 3.94384 55.9722C3.65844 56.1149 3.51574 56.2576 3.23034 56.2576C2.94493 56.2576 2.65953 56.1149 2.51683 55.8295C2.37413 55.4014 2.37413 55.116 2.65953 54.8306C3.80114 53.689 4.94275 52.5474 6.08436 51.4058C6.94057 50.5496 7.65408 49.8361 8.51028 48.9799C8.79569 48.8372 8.93839 48.6945 9.22379 48.5518Z" fill="#FF7000"/>
<path d="M7.93944 42.7007C8.65295 42.7007 9.08105 43.4142 8.79565 43.8423C8.65295 43.985 8.65295 44.1277 8.51025 44.2704C6.65513 46.1255 4.80001 47.9806 2.9449 49.8357L2.8022 49.9785C2.37409 50.2639 1.94599 50.4066 1.66059 49.9785C1.37518 49.693 1.37518 49.1222 1.66059 48.8368C3.0876 47.4098 4.51461 45.9828 5.94162 44.5558C6.51243 43.985 6.94053 43.5569 7.51134 43.1288C7.65404 42.8434 7.93944 42.7007 7.93944 42.7007Z" fill="#FF7000"/>
<path d="M15.9307 50.692C15.9307 50.8347 15.788 50.9774 15.6453 51.2628C13.6474 53.2606 11.7923 55.1157 9.7945 57.1135C9.3664 57.5416 8.93829 57.5416 8.51019 57.1135C8.22478 56.8281 8.22478 56.2573 8.65289 55.9719C10.6507 53.9741 12.5058 52.119 14.5036 50.1212C14.789 49.8358 15.0744 49.6931 15.5026 49.8358C15.788 49.9785 15.9307 50.1212 15.9307 50.692Z" fill="#FF7000"/>
</svg>
