<svg width="46" height="55" viewBox="0 0 46 55" fill="none" xmlns="http://www.w3.org/2000/svg">
<path d="M18.2563 37.8839C17.7082 38.0209 17.297 38.158 16.8859 38.432C16.3377 37.6098 15.9266 36.6505 15.3784 35.9652C14.4191 34.5948 13.3227 33.3614 12.3634 31.9909C10.8559 29.9352 9.62248 27.8795 9.0743 25.2756C7.84088 18.8345 11.404 12.5304 17.5711 10.0636C25.6568 6.77446 34.9759 12.2563 36.2094 20.8902C36.7575 24.8645 35.5241 28.1536 33.3314 31.3057C32.3721 32.6761 31.1387 34.0466 30.1793 35.5541C29.4941 36.5134 29.083 37.4727 28.3978 38.432C28.1237 38.8432 27.8496 39.2543 27.4384 39.3914C24.2864 40.6248 21.1343 41.7211 17.9823 42.8175C17.5711 42.9546 17.297 42.8175 17.16 42.5434C17.0229 42.1323 17.023 41.7211 17.4341 41.5841C17.7082 41.4471 17.9822 41.31 18.2563 41.31C20.9973 40.3507 23.7382 39.3914 26.4791 38.295C26.7532 38.158 27.0273 37.8839 27.1643 37.6098C28.2607 35.5541 29.6312 33.9095 31.0016 31.9909C32.3721 30.2093 33.6055 28.5647 34.1537 26.372C35.5241 21.9865 34.5648 18.1493 31.5498 14.8602C28.1237 11.0229 23.7382 9.78947 18.8046 11.297C13.8709 12.8045 11.13 16.2306 10.1706 21.3013C9.48542 24.8645 10.7188 27.8795 12.7745 30.6204C14.0079 32.265 15.2413 33.9095 16.4748 35.5541C17.297 36.1023 17.7082 36.9245 18.2563 37.8839Z" fill="#FF7000"/>
<path d="M17.5713 51.4514C17.4342 51.3144 17.1602 51.1773 17.1602 50.9032C17.1602 50.6291 17.2972 50.355 17.4343 50.081C17.4343 49.9439 17.7083 49.9439 17.8454 49.9439C20.8604 48.8475 24.0125 47.7512 27.0275 46.6548C27.7127 46.3807 27.9868 46.5178 28.1238 46.9289C28.2609 47.34 27.9868 47.7512 27.4386 48.0253C24.2865 49.1216 21.2715 50.218 18.1195 51.4514C17.9824 51.3144 17.8454 51.3144 17.5713 51.4514Z" fill="#FF7000"/>
<path d="M17.5713 46.9289C17.4342 46.7919 17.1602 46.6549 17.1602 46.3808C17.1602 46.1067 17.2972 45.8326 17.4343 45.5585C17.4343 45.4214 17.7083 45.4214 17.8454 45.4214C20.8604 44.3251 24.0125 43.2287 27.0275 42.1323C27.7127 41.8583 27.9868 41.9953 28.1238 42.4064C28.2609 42.8176 28.1238 43.2287 27.4386 43.5028C24.2865 44.5992 21.2715 45.8326 18.1195 46.9289C17.9824 46.9289 17.8454 46.9289 17.5713 46.9289Z" fill="#FF7000"/>
<path d="M27.4389 50.7661C26.4796 54.0552 21.1348 55.9739 17.8457 54.1923C20.9978 53.0959 24.1498 51.8625 27.4389 50.7661Z" fill="#FF7000"/>
<path d="M23.3275 2.80008C23.3275 3.34826 23.3275 3.89644 23.3275 4.44463C23.3275 4.85576 23.0534 5.12986 22.6423 5.12986C22.2311 5.12986 21.957 4.85576 21.957 4.44463C21.957 3.34826 21.957 2.25189 21.957 1.01848C21.957 0.607344 22.2311 0.333252 22.6423 0.333252C23.0534 0.333252 23.3275 0.607344 23.3275 1.01848C23.3275 1.56666 23.3275 2.25189 23.3275 2.80008Z" fill="#FF7000"/>
<path d="M2.63331 21.9866C3.1815 21.9866 3.7297 21.9866 4.27788 21.9866C4.82606 21.9866 5.10016 22.2607 5.10016 22.6718C5.10016 23.0829 4.82606 23.357 4.27788 23.357C3.18151 23.357 2.08515 23.357 0.988787 23.357C0.440604 23.357 0.166504 23.0829 0.166504 22.6718C0.166504 22.2607 0.440604 21.9866 0.988787 21.9866C1.53697 21.9866 2.08513 21.9866 2.63331 21.9866Z" fill="#FF7000"/>
<path d="M42.6506 23.4942C42.1024 23.4942 41.5542 23.4942 41.006 23.4942C40.5949 23.4942 40.3208 23.2201 40.3208 22.809C40.3208 22.3979 40.5949 22.1238 41.006 22.1238C42.1024 22.1238 43.3358 22.1238 44.4322 22.1238C44.8433 22.1238 45.1174 22.3979 45.1174 22.809C45.1174 23.2201 44.8433 23.4942 44.4322 23.4942C43.7469 23.4942 43.1988 23.4942 42.6506 23.4942Z" fill="#FF7000"/>
<path d="M7.01885 6.36328C7.29294 6.50033 7.42998 6.63737 7.56702 6.77442C8.3893 7.59669 9.07454 8.28192 9.89682 9.1042C10.308 9.51534 10.308 9.78943 9.89682 10.2006C9.62273 10.4747 9.21157 10.4747 8.80043 10.2006C7.97815 9.37829 7.1559 8.69306 6.47067 7.87079C6.33363 7.73374 6.19657 7.3226 6.33362 7.04851C6.47067 6.63737 6.8818 6.50033 7.01885 6.36328Z" fill="#FF7000"/>
<path d="M35.6616 35.0059C35.9357 35.1429 36.0727 35.28 36.2098 35.417C37.032 36.1022 37.7173 36.9245 38.5396 37.6097C38.9507 38.0209 38.9507 38.432 38.6766 38.7061C38.4025 38.9802 37.9914 38.9802 37.5802 38.5691C36.7579 37.7468 36.0727 37.0615 35.2505 36.2393C35.1134 36.1022 34.9764 35.6911 35.1134 35.417C35.1134 35.28 35.3875 35.1429 35.6616 35.0059Z" fill="#FF7000"/>
<path d="M38.9506 7.18584C38.8135 7.45993 38.6765 7.59698 38.5394 7.73403C37.7172 8.5563 37.0319 9.24153 36.2096 10.0638C35.9355 10.3379 35.5244 10.4749 35.1133 10.0638C34.8392 9.78971 34.8392 9.37858 35.1133 8.96744C35.9356 8.14516 36.6208 7.32289 37.443 6.63766C37.5801 6.50061 37.9912 6.36357 38.2653 6.50061C38.5394 6.63766 38.6765 7.0488 38.9506 7.18584Z" fill="#FF7000"/>
<path d="M7.01875 38.9804C6.88171 38.8433 6.60762 38.7063 6.47058 38.4322C6.33353 38.2951 6.47058 37.884 6.47058 37.7469C7.29285 36.9247 8.11512 35.9653 9.07444 35.1431C9.34853 34.869 9.75964 34.869 10.0337 35.1431C10.3078 35.4172 10.3078 35.8283 10.0337 36.1024C9.21146 36.9247 8.3892 37.7469 7.56693 38.5692C7.42988 38.8433 7.29284 38.9804 7.01875 38.9804Z" fill="#FF7000"/>
</svg>
