<svg width="200" height="115" viewBox="0 0 200 115" fill="none" xmlns="http://www.w3.org/2000/svg">
<mask id="path-1-inside-1_31_5105" fill="white">
<path fill-rule="evenodd" clip-rule="evenodd" d="M50 0V16H150V0H200V115H150V99H50V115H0V0H50Z"/>
</mask>
<path fill-rule="evenodd" clip-rule="evenodd" d="M50 0V16H150V0H200V115H150V99H50V115H0V0H50Z" fill="#244691" fill-opacity="0.71"/>
<path d="M50 0H55V-5H50V0ZM50 16H45V21H50V16ZM150 16V21H155V16H150ZM150 0V-5H145V0H150ZM200 0H205V-5H200V0ZM200 115V120H205V115H200ZM150 115H145V120H150V115ZM150 99H155V94H150V99ZM50 99V94H45V99H50ZM50 115V120H55V115H50ZM0 115H-5V120H0V115ZM0 0V-5H-5V0H0ZM45 0V16H55V0H45ZM50 21H150V11H50V21ZM155 16V0H145V16H155ZM150 5H200V-5H150V5ZM195 0V115H205V0H195ZM200 110H150V120H200V110ZM155 115V99H145V115H155ZM150 94H50V104H150V94ZM45 99V115H55V99H45ZM50 110H0V120H50V110ZM5 115V0H-5V115H5ZM0 5H50V-5H0V5Z" fill="#FF7000" mask="url(#path-1-inside-1_31_5105)"/>
</svg>
